# xmcd CD database file
#
# Track frame offsets:
#	150
#	12898
#	25901
#	36222
#	47803
#	59169
#	76348
#	88253
#	101099
#	115589
#	130169
#
# Disc length: 1897 seconds
#
# Revision: 0
# Processed by: cddbd v1.5.2PL0 Copyright (c) Steve Scherf et al.
# Submitted via: CDex 1.79
#
DISCID=8e07670b
DTITLE=Various Artist - Rhinestone Cowboy [CD2]
DYEAR=2015
DGENRE=Country
TTITLE0=Charlie Rich \ The Most Beautiful Girl
TTITLE1=Lynn Anderson \ Rose Garden
TTITLE2=Tommy Cash \ Rise and Stone
TTITLE3=Barbara Fairchild \ Cheatin' Is
TTITLE4=Freddy Fender \ Before The Next Teardrop Falls
TTITLE5=Kenny Rogers \ Something's Burning
TTITLE6=Donna Fargo \ Funny Face
TTITLE7=Faron Young \ It's Four In The Morning
TTITLE8=Charlie Louvin and Tammy Wynette \ IfI Could Hear My Mother Pray Again
TTITLE9=Don Gibson \ Woman (Sensouous Woman)
TTITLE10=Johnny Rodriguez \ Love Put A Song In My Heart
EXTD=YEAR: 2015
EXTT0=
EXTT1=
EXTT2=
EXTT3=
EXTT4=
EXTT5=
EXTT6=
EXTT7=
EXTT8=
EXTT9=
EXTT10=
PLAYORDER=
